<svg width="20" height="20" viewBox="0 0 20 20" fill="none" xmlns="http://www.w3.org/2000/svg">
<path d="M9.65544 9.65477C9.65544 9.47186 9.58278 9.29645 9.45344 9.16711C9.32411 9.03778 9.14869 8.96512 8.96578 8.96512H4.80302L9.52371 2.47408C9.59852 2.37118 9.6434 2.2496 9.6534 2.12278C9.6634 1.99597 9.63813 1.86885 9.58039 1.7555C9.52264 1.64215 9.43467 1.54698 9.3262 1.48052C9.21773 1.41406 9.09299 1.37889 8.96578 1.37891H3.44854C3.26563 1.37891 3.09022 1.45157 2.96088 1.5809C2.83155 1.71024 2.75889 1.88565 2.75889 2.06856C2.75889 2.25147 2.83155 2.42689 2.96088 2.55622C3.09022 2.68556 3.26563 2.75822 3.44854 2.75822H7.6113L2.89061 9.24925C2.81581 9.35215 2.77093 9.47373 2.76092 9.60055C2.75092 9.72737 2.77619 9.85448 2.83394 9.96783C2.89168 10.0812 2.97965 10.1763 3.08812 10.2428C3.19659 10.3093 3.32133 10.3444 3.44854 10.3444H8.96578C9.14869 10.3444 9.32411 10.2718 9.45344 10.1424C9.58278 10.0131 9.65544 9.83768 9.65544 9.65477ZM9.65544 17.241H6.89682L10.2072 12.8272C10.284 12.7247 10.3308 12.6029 10.3423 12.4753C10.3538 12.3478 10.3296 12.2195 10.2723 12.105C10.215 11.9904 10.127 11.8941 10.018 11.8267C9.90906 11.7594 9.78352 11.7237 9.65544 11.7237H5.51751C5.3346 11.7237 5.15918 11.7964 5.02985 11.9257C4.90051 12.0551 4.82785 12.2305 4.82785 12.4134C4.82785 12.5963 4.90051 12.7717 5.02985 12.9011C5.15918 13.0304 5.3346 13.103 5.51751 13.103H8.27613L4.96578 17.5168C4.88894 17.6193 4.84214 17.7411 4.83064 17.8687C4.81914 17.9963 4.84338 18.1245 4.90066 18.2391C4.95794 18.3536 5.04598 18.45 5.15493 18.5173C5.26388 18.5846 5.38943 18.6203 5.51751 18.6203H9.65544C9.83835 18.6203 10.0138 18.5476 10.1431 18.4183C10.2724 18.289 10.3451 18.1135 10.3451 17.9306C10.3451 17.7477 10.2724 17.5723 10.1431 17.443C10.0138 17.3136 9.83835 17.241 9.65544 17.241ZM16.552 13.7927H13.0485L17.1175 7.98098C17.1898 7.87759 17.2323 7.75636 17.2405 7.63047C17.2487 7.50458 17.2222 7.37887 17.1638 7.26701C17.1055 7.15514 17.0177 7.06142 16.9098 6.99603C16.8019 6.93064 16.6781 6.89609 16.552 6.89615H11.7244C11.5415 6.89615 11.3661 6.96881 11.2367 7.09814C11.1074 7.22748 11.0347 7.4029 11.0347 7.5858C11.0347 7.76871 11.1074 7.94413 11.2367 8.07346C11.3661 8.2028 11.5415 8.27546 11.7244 8.27546H15.2279L11.1589 14.0872C11.0866 14.1906 11.0441 14.3118 11.0359 14.4377C11.0277 14.5636 11.0542 14.6893 11.1125 14.8012C11.1709 14.913 11.2587 15.0067 11.3666 15.0721C11.4745 15.1375 11.5983 15.1721 11.7244 15.172H16.552C16.7349 15.172 16.9103 15.0994 17.0397 14.97C17.169 14.8407 17.2416 14.6653 17.2416 14.4824C17.2416 14.2994 17.169 14.124 17.0397 13.9947C16.9103 13.8654 16.7349 13.7927 16.552 13.7927Z" fill="#0A3782"/>
</svg>
