<svg width="42" height="34" viewBox="0 0 42 34" fill="none" xmlns="http://www.w3.org/2000/svg">
<path d="M37.1132 3.57895C37.7511 3.57895 38.273 4.11579 38.273 4.77193V7.1579H3.47937V4.77193C3.47937 4.11579 4.00127 3.57895 4.63915 3.57895H37.1132ZM38.273 14.3158V28.6316C38.273 29.2877 37.7511 29.8246 37.1132 29.8246H4.63915C4.00127 29.8246 3.47937 29.2877 3.47937 28.6316V14.3158H38.273ZM4.63915 0C2.08037 0 0 2.13991 0 4.77193V28.6316C0 31.2636 2.08037 33.4035 4.63915 33.4035H37.1132C39.672 33.4035 41.7524 31.2636 41.7524 28.6316V4.77193C41.7524 2.13991 39.672 0 37.1132 0H4.63915ZM8.69841 22.6667C7.73434 22.6667 6.95873 23.4645 6.95873 24.4561C6.95873 25.4478 7.73434 26.2456 8.69841 26.2456H12.1778C13.1419 26.2456 13.9175 25.4478 13.9175 24.4561C13.9175 23.4645 13.1419 22.6667 12.1778 22.6667H8.69841ZM17.9767 22.6667C17.0126 22.6667 16.237 23.4645 16.237 24.4561C16.237 25.4478 17.0126 26.2456 17.9767 26.2456H26.0952C27.0593 26.2456 27.8349 25.4478 27.8349 24.4561C27.8349 23.4645 27.0593 22.6667 26.0952 22.6667H17.9767Z" fill="black"/>
</svg>
