<svg width="21" height="21" viewBox="0 0 21 21" fill="none" xmlns="http://www.w3.org/2000/svg">
<path d="M10.32 0C16.0196 0 20.64 4.62042 20.64 10.32C20.64 16.0196 16.0196 20.64 10.32 20.64C4.62042 20.64 0 16.0196 0 10.32C0 4.62042 4.62042 0 10.32 0ZM10.32 1.72C5.57035 1.72 1.72 5.57035 1.72 10.32C1.72 15.0696 5.57035 18.92 10.32 18.92C15.0696 18.92 18.92 15.0696 18.92 10.32C18.92 5.57035 15.0696 1.72 10.32 1.72ZM9.02919 12.113L13.9669 7.16205C14.3023 6.82575 14.8468 6.82502 15.1831 7.16042C15.482 7.45856 15.5158 7.92192 15.2841 8.2574L15.1847 8.37664L9.63892 13.9373C9.34051 14.2365 8.87661 14.27 8.54111 14.0377L8.42189 13.9381L5.41189 10.9281C5.07604 10.5923 5.07604 10.0477 5.41189 9.71189C5.71042 9.41335 6.17383 9.38018 6.50901 9.61238L6.62811 9.71189L9.02919 12.113L13.9669 7.16205L9.02919 12.113Z" fill="#F5E3D3"/>
</svg>
