<svg width="22" height="21" viewBox="0 0 22 21" fill="none" xmlns="http://www.w3.org/2000/svg">
<path d="M10.7813 0C8.74782 0 6.76004 0.602985 5.0693 1.7327C3.37856 2.86242 2.06078 4.46813 1.28262 6.34679C0.504455 8.22544 0.300852 10.2927 0.697556 12.287C1.09426 14.2814 2.07345 16.1133 3.51131 17.5512C4.94917 18.989 6.78112 19.9682 8.77548 20.3649C10.7698 20.7617 12.8371 20.5581 14.7157 19.7799C16.5944 19.0017 18.2001 17.6839 19.3298 15.9932C20.4595 14.3025 21.0625 12.3147 21.0625 10.2812C21.0625 7.55449 19.9793 4.93942 18.0512 3.01131C16.1231 1.0832 13.508 0 10.7813 0ZM10.7813 19.0938C9.03831 19.0938 7.3345 18.5769 5.88529 17.6086C4.43608 16.6402 3.30656 15.2639 2.63957 13.6536C1.97257 12.0434 1.79805 10.2715 2.13808 8.56202C2.47812 6.85256 3.31743 5.28232 4.54988 4.04987C5.78233 2.81742 7.35256 1.97811 9.06202 1.63808C10.7715 1.29805 12.5434 1.47256 14.1537 2.13956C15.7639 2.80656 17.1402 3.93608 18.1086 5.38529C19.0769 6.8345 19.5938 8.5383 19.5938 10.2812C19.5938 12.6185 18.6653 14.86 17.0126 16.5126C15.36 18.1653 13.1185 19.0938 10.7813 19.0938Z" fill="black"/>
<path d="M15.7093 5.35395C15.641 5.28511 15.5598 5.23048 15.4703 5.1932C15.3808 5.15591 15.2848 5.13672 15.1879 5.13672C15.0909 5.13672 14.9949 5.15591 14.9054 5.1932C14.8159 5.23048 14.7347 5.28511 14.6664 5.35395L10.7816 9.24613L6.89676 5.35395C6.75847 5.21566 6.57092 5.13797 6.37535 5.13797C6.17979 5.13797 5.99223 5.21566 5.85395 5.35395C5.71566 5.49223 5.63797 5.67979 5.63797 5.87535C5.63797 6.07092 5.71566 6.25847 5.85395 6.39676L9.74613 10.2816L5.85395 14.1664C5.78511 14.2347 5.73048 14.3159 5.6932 14.4054C5.65591 14.4949 5.63672 14.5909 5.63672 14.6879C5.63672 14.7848 5.65591 14.8808 5.6932 14.9703C5.73048 15.0598 5.78511 15.141 5.85395 15.2093C5.92222 15.2781 6.00344 15.3327 6.09293 15.37C6.18242 15.4073 6.27841 15.4265 6.37535 15.4265C6.4723 15.4265 6.56829 15.4073 6.65778 15.37C6.74727 15.3327 6.82849 15.2781 6.89676 15.2093L10.7816 11.3171L14.6664 15.2093C14.7347 15.2781 14.8159 15.3327 14.9054 15.37C14.9949 15.4073 15.0909 15.4265 15.1879 15.4265C15.2848 15.4265 15.3808 15.4073 15.4703 15.37C15.5598 15.3327 15.641 15.2781 15.7093 15.2093C15.7781 15.141 15.8327 15.0598 15.87 14.9703C15.9073 14.8808 15.9265 14.7848 15.9265 14.6879C15.9265 14.5909 15.9073 14.4949 15.87 14.4054C15.8327 14.3159 15.7781 14.2347 15.7093 14.1664L11.8171 10.2816L15.7093 6.39676C15.7781 6.32849 15.8327 6.24727 15.87 6.15778C15.9073 6.06829 15.9265 5.9723 15.9265 5.87535C15.9265 5.77841 15.9073 5.68242 15.87 5.59293C15.8327 5.50344 15.7781 5.42222 15.7093 5.35395Z" fill="black"/>
</svg>
