<svg width="24" height="24" viewBox="0 0 24 24" fill="none" xmlns="http://www.w3.org/2000/svg">
<path d="M21.6141 16.6367C21.5656 16.6275 21.5157 16.628 21.4674 16.6381C21.4191 16.6483 21.3733 16.6678 21.3326 16.6957C21.2919 16.7236 21.257 16.7592 21.2301 16.8006C21.2032 16.8419 21.1847 16.8882 21.1757 16.9367C20.6079 19.9243 18.6377 21.4877 16.9877 21.4877H15.5316C15.5391 20.9364 15.5353 20.1939 15.4978 19.3052C15.4191 17.4077 14.0128 15.6752 12.8353 14.7714C11.8041 13.9802 10.6603 12.9752 10.3116 12.6639H5.7628L5.8978 20.3139C5.89983 20.4128 5.86274 20.5084 5.79462 20.58C5.72651 20.6517 5.63286 20.6935 5.53405 20.6964C5.36457 20.687 5.19517 20.7163 5.03861 20.7819C4.88206 20.8475 4.74245 20.9478 4.6303 21.0752C4.40615 21.4192 4.30443 21.8288 4.34155 22.2377H16.9877C18.9482 22.2377 21.2694 20.4639 21.9133 17.0743C21.9316 16.9766 21.9104 16.8756 21.8543 16.7936C21.7982 16.7115 21.7118 16.6551 21.6141 16.6367ZM11.5716 20.9117H8.5903C8.2378 20.9117 8.1103 21.5154 8.10655 21.5829C8.10208 21.6799 8.0608 21.7715 7.99112 21.8391C7.92144 21.9067 7.82861 21.9452 7.73155 21.9467H7.7203C7.62346 21.9458 7.53089 21.9067 7.46275 21.8378C7.39462 21.769 7.35645 21.676 7.35655 21.5792C7.35655 21.2679 7.6528 20.1617 8.5903 20.1617H10.2516C9.99594 19.9114 9.79207 19.6132 9.65155 19.2842C9.0703 17.9229 9.7078 16.3967 9.7378 16.3292C9.77709 16.2377 9.85111 16.1655 9.94359 16.1286C10.0361 16.0917 10.1394 16.093 10.2309 16.1323C10.3224 16.1716 10.3946 16.2456 10.4315 16.3381C10.4684 16.4306 10.4671 16.5339 10.4278 16.6254C10.4203 16.6367 9.88405 17.9304 10.3416 18.9917C10.4733 19.2741 10.6623 19.5259 10.8967 19.7312C11.131 19.9365 11.4056 20.0908 11.7028 20.1842C11.786 20.2144 11.8558 20.273 11.8999 20.3497C11.9441 20.4264 11.9597 20.5162 11.9439 20.6033C11.9282 20.6904 11.8822 20.7691 11.8141 20.8255C11.7459 20.882 11.66 20.9125 11.5716 20.9117ZM5.49205 8.05819H4.32693C3.45393 8.05819 2.2663 6.94482 2.08105 5.75794L5.55505 5.16432C5.61557 5.15399 5.67262 5.12896 5.7212 5.09143C5.76978 5.0539 5.8084 5.00501 5.83368 4.94907C5.94618 4.69932 6.3448 4.02019 6.8323 3.84394C6.90048 3.81871 6.96113 3.77657 7.00856 3.72147C7.05598 3.66637 7.08863 3.60012 7.10343 3.52894L7.24968 2.3642C7.17732 2.15891 7.09292 1.95806 6.99693 1.7627L7.79455 2.1527C7.84225 2.17609 7.88444 2.20934 7.91831 2.25027C7.95219 2.29119 7.97698 2.33884 7.99105 2.39007L8.34618 3.68007C8.37013 3.76882 8.42602 3.84559 8.50313 3.89564C8.58024 3.94568 8.67312 3.96547 8.76393 3.9512C8.9879 3.9413 9.20699 4.01859 9.37518 4.16682C9.75318 4.49082 9.9553 5.15719 9.95905 6.09432C9.96843 8.28919 10.0397 10.9378 10.0678 11.9128H5.76693L5.86668 8.44407C5.86813 8.39392 5.85951 8.34398 5.84132 8.29722C5.82312 8.25046 5.79573 8.20783 5.76076 8.17185C5.7258 8.13586 5.68396 8.10726 5.63774 8.08774C5.59152 8.06822 5.54185 8.05817 5.49168 8.05819H5.49205ZM5.35705 12.2878C5.40767 12.2877 5.45717 12.3027 5.49928 12.3308C5.5414 12.3588 5.57424 12.3988 5.59364 12.4455C5.61304 12.4923 5.61814 12.5437 5.60828 12.5934C5.59843 12.643 5.57406 12.6886 5.53827 12.7244C5.50248 12.7602 5.45688 12.7846 5.40723 12.7944C5.35759 12.8043 5.30613 12.7992 5.25938 12.7798C5.21264 12.7604 5.1727 12.7275 5.14462 12.6854C5.11655 12.6433 5.10161 12.5938 5.10168 12.5432C5.10178 12.4755 5.12872 12.4106 5.17659 12.3627C5.22446 12.3149 5.28936 12.2879 5.35705 12.2878Z" fill="#0A3782"/>
</svg>
