<svg width="20" height="20" viewBox="0 0 20 20" fill="none" xmlns="http://www.w3.org/2000/svg">
<g clip-path="url(#clip0_511_3587)">
<path d="M19.322 13.5401V11.6008C19.322 10.73 18.8418 10.0572 18.2138 9.97807V3.24984C18.2138 2.57701 17.7336 2.0625 17.1056 2.0625H2.32989C1.70192 2.0625 1.22171 2.57701 1.22171 3.24984V9.97807C0.593745 10.0572 0.113534 10.73 0.113534 11.6008V13.5401C-0.108102 13.7775 -0.255859 14.1337 -0.255859 14.4899V14.9253C-0.255859 15.5981 0.224352 16.1918 0.85232 16.2709V16.6667C0.85232 16.9042 1.00008 17.0625 1.22171 17.0625H1.9605C2.18214 17.0625 2.32989 16.9042 2.32989 16.6667V16.2709H17.1056V16.6667C17.1056 16.9042 17.2534 17.0625 17.475 17.0625H18.2138C18.4354 17.0625 18.5832 16.9042 18.5832 16.6667V16.2709C19.2112 16.1918 19.6914 15.5981 19.6914 14.9253V14.4899C19.6914 14.1337 19.5436 13.7775 19.322 13.5401ZM1.9605 3.24984C1.9605 3.01237 2.10826 2.85406 2.32989 2.85406H17.1056C17.3273 2.85406 17.475 3.01237 17.475 3.24984V9.97807H16.7362V8.27622C16.7362 7.44509 16.1083 6.81184 15.3695 6.81184H12.2296C11.4539 6.81184 10.8629 7.48466 10.8629 8.27622V9.97807H8.64652V8.27622C8.64652 7.44509 8.01855 6.81184 7.27976 6.81184H4.13992C3.36419 6.81184 2.77316 7.48466 2.77316 8.27622V9.97807H2.03438V3.24984H1.9605ZM15.9974 9.97807H11.5647V8.27622C11.5647 7.88044 11.8602 7.6034 12.1927 7.6034H15.3325C15.7019 7.6034 15.9605 7.92002 15.9605 8.27622V9.97807H15.9974ZM7.87079 9.97807H3.43807V8.27622C3.43807 7.88044 3.73359 7.6034 4.06604 7.6034H7.20588C7.57528 7.6034 7.83385 7.92002 7.83385 8.27622V9.97807H7.87079ZM1.36947 10.7696H1.59111H3.06868H8.24018H11.1953H16.3668H17.8444H18.066C18.2877 10.7696 18.5832 11.1258 18.5832 11.6008V13.1443C18.5463 13.1443 18.4724 13.1443 18.4354 13.1443H1.00008C0.926199 13.1443 0.889259 13.1443 0.85232 13.1443V11.6008C0.85232 11.1258 1.1109 10.7696 1.36947 10.7696ZM18.9526 14.9649C18.9526 15.2815 18.694 15.519 18.4354 15.519H1.00008C0.741502 15.519 0.482927 15.2419 0.482927 14.9649V14.5295C0.482927 14.2129 0.741502 13.9359 1.00008 13.9359H18.3985C18.694 13.9359 18.9156 14.2129 18.9156 14.4899V14.9649H18.9526Z" fill="#0A3782"/>
</g>
<defs>
<clipPath id="clip0_511_3587">
<rect width="20" height="20" fill="white"/>
</clipPath>
</defs>
</svg>
