<svg width="34" height="34" viewBox="0 0 34 34" xmlns="http://www.w3.org/2000/svg">
<path d="M33.8548 0.941761C34.1281 1.6018 34.0156 2.16525 33.5172 2.6321L21.6296 14.5369V32.4545C21.6296 33.1307 21.3162 33.6056 20.6893 33.8793C20.4803 33.9598 20.2793 34 20.0864 34C19.6524 34 19.2907 33.8471 19.0014 33.5412L12.8285 27.3594C12.5231 27.0535 12.3703 26.6913 12.3703 26.2727V14.5369L0.482758 2.6321C-0.0155728 2.16525 -0.128099 1.6018 0.145179 0.941761C0.418457 0.31392 0.892675 0 1.56783 0H32.4322C33.1073 0 33.5815 0.31392 33.8548 0.941761Z" 
fill="#F5E3D3"/>
</svg>
