<svg width="30" height="30" viewBox="0 0 30 30" fill="none" xmlns="http://www.w3.org/2000/svg">
<path d="M5.625 7.03125H14.0625C14.58 7.03125 15 6.61125 15 6.09375C15 5.57625 14.58 5.15625 14.0625 5.15625H5.625C5.1075 5.15625 4.6875 5.57625 4.6875 6.09375C4.6875 6.61125 5.1075 7.03125 5.625 7.03125ZM5.625 10.7812H14.0625C14.58 10.7812 15 10.3612 15 9.84375C15 9.32625 14.58 8.90625 14.0625 8.90625H5.625C5.1075 8.90625 4.6875 9.32625 4.6875 9.84375C4.6875 10.3612 5.1075 10.7812 5.625 10.7812ZM5.625 14.5312H14.0625C14.58 14.5312 15 14.1112 15 13.5938C15 13.0763 14.58 12.6562 14.0625 12.6562H5.625C5.1075 12.6562 4.6875 13.0763 4.6875 13.5938C4.6875 14.1112 5.1075 14.5312 5.625 14.5312ZM14.0625 18.2812C14.58 18.2812 15 17.8612 15 17.3438C15 16.8263 14.58 16.4062 14.0625 16.4062H5.625C5.1075 16.4062 4.6875 16.8263 4.6875 17.3438C4.6875 17.8612 5.1075 18.2812 5.625 18.2812H14.0625ZM21.5625 13.5938H24.375C24.8925 13.5938 25.3125 13.1737 25.3125 12.6562C25.3125 12.1388 24.8925 11.7188 24.375 11.7188H21.5625C21.045 11.7188 20.625 12.1388 20.625 12.6562C20.625 13.1737 21.045 13.5938 21.5625 13.5938ZM21.5625 17.3438H24.375C24.8925 17.3438 25.3125 16.9237 25.3125 16.4062C25.3125 15.8888 24.8925 15.4688 24.375 15.4688H21.5625C21.045 15.4688 20.625 15.8888 20.625 16.4062C20.625 16.9237 21.045 17.3438 21.5625 17.3438ZM21.5625 21.0938H24.375C24.8925 21.0938 25.3125 20.6737 25.3125 20.1562C25.3125 19.6388 24.8925 19.2188 24.375 19.2188H21.5625C21.045 19.2188 20.625 19.6388 20.625 20.1562C20.625 20.6737 21.045 21.0938 21.5625 21.0938Z" fill="black"/>
<path d="M28.125 7.5H18.75V2.34375C18.75 1.82625 18.33 1.40625 17.8125 1.40625H1.875C1.3575 1.40625 0.9375 1.82625 0.9375 2.34375V26.7188C0.9375 27.2362 1.3575 27.6562 1.875 27.6562H28.125C28.6425 27.6562 29.0625 27.2362 29.0625 26.7188V8.4375C29.0625 7.92 28.6425 7.5 28.125 7.5ZM2.8125 3.28125H16.875V8.4375V25.7812H13.5938V23.9062C13.5938 21.8386 11.9114 20.1562 9.84375 20.1562C7.77609 20.1562 6.09375 21.8386 6.09375 23.9062V25.7812H2.8125V3.28125ZM7.96875 25.7812V23.9062C7.96875 22.8722 8.80969 22.0312 9.84375 22.0312C10.8778 22.0312 11.7188 22.8722 11.7188 23.9062V25.7812H7.96875ZM27.1875 25.7812H18.75V9.375H27.1875V25.7812Z" fill="black"/>
</svg>
