<svg width="30" height="30" viewBox="0 0 30 30" fill="none" xmlns="http://www.w3.org/2000/svg">
<path d="M15 30C12.95 30 11.0125 29.606 9.1875 28.818C7.3625 28.03 5.7685 26.955 4.4055 25.593C3.0435 24.231 1.9685 22.6375 1.1805 20.8125C0.392502 18.9875 -0.000998099 17.05 1.90114e-06 15C1.90114e-06 12.925 0.394002 10.981 1.182 9.168C1.97 7.355 3.045 5.768 4.407 4.407C5.769 3.044 7.362 1.969 9.186 1.182C11.01 0.395 12.948 0.001 15 0C17.075 0 19.019 0.394 20.832 1.182C22.645 1.97 24.232 3.045 25.593 4.407C26.956 5.769 28.031 7.3565 28.818 9.1695C29.605 10.9825 29.999 12.926 30 15C30 17.05 29.606 18.9875 28.818 20.8125C28.03 22.6375 26.955 24.2315 25.593 25.5945C24.231 26.9565 22.6435 28.0315 20.8305 28.8195C19.0175 29.6075 17.074 30.001 15 30ZM15 26.925C15.65 26.025 16.2125 25.0875 16.6875 24.1125C17.1625 23.1375 17.55 22.1 17.85 21H12.15C12.45 22.1 12.8375 23.1375 13.3125 24.1125C13.7875 25.0875 14.35 26.025 15 26.925ZM11.1 26.325C10.65 25.5 10.256 24.6435 9.918 23.7555C9.58 22.8675 9.299 21.949 9.075 21H4.65C5.375 22.25 6.2815 23.3375 7.3695 24.2625C8.4575 25.1875 9.701 25.875 11.1 26.325ZM18.9 26.325C20.3 25.875 21.544 25.1875 22.632 24.2625C23.72 23.3375 24.626 22.25 25.35 21H20.925C20.7 21.95 20.419 22.869 20.082 23.757C19.745 24.645 19.351 25.501 18.9 26.325ZM3.375 18H8.475C8.4 17.5 8.3435 17.006 8.3055 16.518C8.2675 16.03 8.249 15.524 8.25 15C8.25 14.475 8.269 13.969 8.307 13.482C8.345 12.995 8.401 12.501 8.475 12H3.375C3.25 12.5 3.156 12.994 3.093 13.482C3.03 13.97 2.999 14.476 3 15C3 15.525 3.0315 16.031 3.0945 16.518C3.1575 17.005 3.251 17.499 3.375 18ZM11.475 18H18.525C18.6 17.5 18.6565 17.006 18.6945 16.518C18.7325 16.03 18.751 15.524 18.75 15C18.75 14.475 18.731 13.969 18.693 13.482C18.655 12.995 18.599 12.501 18.525 12H11.475C11.4 12.5 11.3435 12.994 11.3055 13.482C11.2675 13.97 11.249 14.476 11.25 15C11.25 15.525 11.269 16.031 11.307 16.518C11.345 17.005 11.401 17.499 11.475 18ZM21.525 18H26.625C26.75 17.5 26.844 17.006 26.907 16.518C26.97 16.03 27.001 15.524 27 15C27 14.475 26.9685 13.969 26.9055 13.482C26.8425 12.995 26.749 12.501 26.625 12H21.525C21.6 12.5 21.6565 12.994 21.6945 13.482C21.7325 13.97 21.751 14.476 21.75 15C21.75 15.525 21.731 16.031 21.693 16.518C21.655 17.005 21.599 17.499 21.525 18ZM20.925 9H25.35C24.625 7.75 23.719 6.6625 22.632 5.7375C21.545 4.8125 20.301 4.125 18.9 3.675C19.35 4.5 19.744 5.3565 20.082 6.2445C20.42 7.1325 20.701 8.051 20.925 9ZM12.15 9H17.85C17.55 7.9 17.1625 6.8625 16.6875 5.8875C16.2125 4.9125 15.65 3.975 15 3.075C14.35 3.975 13.7875 4.9125 13.3125 5.8875C12.8375 6.8625 12.45 7.9 12.15 9ZM4.65 9H9.075C9.3 8.05 9.5815 7.131 9.9195 6.243C10.2575 5.355 10.651 4.499 11.1 3.675C9.7 4.125 8.456 4.8125 7.368 5.7375C6.28 6.6625 5.374 7.75 4.65 9Z" fill="black"/>
</svg>
