<svg width="240" height="40" viewBox="0 0 240 40" fill="none" xmlns="http://www.w3.org/2000/svg">
<path d="M166.275 28.4525H152.139V3.40527H166.275V28.4525Z" fill="#6C6BBD"/>
<path d="M153.037 15.9295C153.037 10.8484 155.449 6.32251 159.207 3.40588C156.459 1.27308 152.991 0 149.223 0C140.301 0 133.068 7.13169 133.068 15.9295C133.068 24.7271 140.301 31.8588 149.223 31.8588C152.991 31.8588 156.459 30.5857 159.207 28.4529C155.449 25.5363 153.037 21.0103 153.037 15.9295Z" fill="#D32011"/>
<path d="M185.347 15.9295C185.347 24.7271 178.114 31.8588 169.192 31.8588C165.424 31.8588 161.956 30.5857 159.207 28.4529C162.966 25.5363 165.378 21.0103 165.378 15.9295C165.378 10.8484 162.966 6.32251 159.207 3.40588C161.956 1.27308 165.424 0 169.192 0C178.114 0 185.347 7.13169 185.347 15.9295Z" fill="#0099DF"/>
<path d="M171.059 35.5297C171.247 35.5297 171.517 35.5652 171.723 35.6451L171.436 36.5121C171.238 36.4322 171.041 36.4058 170.852 36.4058C170.242 36.4058 169.937 36.7946 169.937 37.4934V39.8652H169.003V35.6361H169.928V36.1495C170.17 35.7778 170.52 35.5297 171.059 35.5297ZM167.609 36.4766H166.084V38.3876C166.084 38.812 166.236 39.0955 166.703 39.0955C166.946 39.0955 167.251 39.0156 167.528 38.8565L167.797 39.6435C167.502 39.8469 167.035 39.9717 166.631 39.9717C165.527 39.9717 165.142 39.3872 165.142 38.4049V36.4766H164.271V35.6361H165.142V34.3529H166.084V35.6361H167.609V36.4766ZM155.664 37.3791C155.764 36.7684 156.14 36.3522 156.805 36.3522C157.405 36.3522 157.792 36.7237 157.89 37.3791H155.664ZM158.86 37.7507C158.851 36.4319 158.025 35.5297 156.822 35.5297C155.566 35.5297 154.686 36.4322 154.686 37.7505C154.686 39.0945 155.602 39.9705 156.886 39.9705C157.532 39.9705 158.123 39.8115 158.644 39.3782L158.186 38.6966C157.828 38.9801 157.369 39.1392 156.939 39.1392C156.338 39.1392 155.791 38.8648 155.656 38.1043H158.841C158.851 37.9887 158.86 37.8742 158.86 37.7507ZM162.96 36.7156C162.701 36.5556 162.171 36.352 161.624 36.352C161.112 36.352 160.807 36.5385 160.807 36.8483C160.807 37.1308 161.13 37.2107 161.534 37.2635L161.973 37.3253C162.907 37.459 163.472 37.848 163.472 38.5913C163.472 39.3963 162.754 39.9715 161.516 39.9715C160.816 39.9715 160.17 39.7943 159.658 39.4227L160.098 38.7057C160.412 38.9447 160.879 39.1482 161.525 39.1482C162.162 39.1482 162.503 38.963 162.503 38.6348C162.503 38.3968 162.261 38.2631 161.749 38.1933L161.31 38.1315C160.349 37.9978 159.829 37.5734 159.829 36.8838C159.829 36.0432 160.529 35.5297 161.615 35.5297C162.297 35.5297 162.916 35.6807 163.364 35.9723L162.96 36.7156ZM174.47 36.4036C174.278 36.4036 174.1 36.4372 173.935 36.503C173.775 36.5669 173.629 36.662 173.507 36.7825C173.385 36.9059 173.288 37.0523 173.224 37.213C173.155 37.3801 173.121 37.5643 173.121 37.7648C173.121 37.9664 173.155 38.1496 173.224 38.3167C173.293 38.4838 173.387 38.6278 173.507 38.7472C173.629 38.8677 173.775 38.9628 173.935 39.0266C174.1 39.0935 174.278 39.1259 174.47 39.1259C174.662 39.1259 174.841 39.0937 175.005 39.0266C175.166 38.963 175.312 38.868 175.434 38.7472C175.557 38.6278 175.651 38.4838 175.721 38.3167C175.79 38.1496 175.824 37.9664 175.824 37.7648C175.824 37.5643 175.79 37.3801 175.721 37.213C175.651 37.0458 175.557 36.9021 175.434 36.7825C175.312 36.6617 175.166 36.5666 175.005 36.503C174.835 36.436 174.653 36.4023 174.47 36.4038L174.47 36.4036ZM174.47 35.5297C174.803 35.5297 175.111 35.5865 175.394 35.7009C175.668 35.8084 175.918 35.9681 176.13 36.1708C176.338 36.372 176.503 36.6123 176.616 36.8775C176.733 37.1501 176.791 37.4459 176.791 37.7648C176.791 38.0838 176.733 38.3795 176.616 38.6519C176.503 38.9175 176.338 39.1582 176.13 39.3598C175.923 39.5594 175.678 39.7154 175.394 39.8298C175.111 39.9433 174.803 39.9999 174.47 39.9999C174.137 39.9999 173.829 39.9433 173.545 39.8298C173.262 39.7154 173.018 39.5594 172.813 39.3598C172.606 39.1576 172.442 38.917 172.329 38.6519C172.212 38.3795 172.153 38.0838 172.153 37.7648C172.153 37.4459 172.212 37.1501 172.329 36.8777C172.442 36.6129 172.606 36.3727 172.813 36.1708C173.023 35.9679 173.272 35.8081 173.545 35.7009C173.829 35.5865 174.137 35.5297 174.47 35.5297ZM150.212 37.7505C150.212 37.0074 150.706 36.3967 151.514 36.3967C152.285 36.3967 152.806 36.981 152.806 37.7507C152.806 38.5203 152.285 39.1037 151.514 39.1037C150.706 39.1037 150.212 38.4939 150.212 37.7505ZM153.685 37.7505V35.6361H152.752V36.1495C152.456 35.7687 152.008 35.5297 151.398 35.5297C150.195 35.5297 149.253 36.4583 149.253 37.7505C149.253 39.0419 150.195 39.9715 151.398 39.9715C152.008 39.9715 152.455 39.7325 152.752 39.3518V39.8652H153.685V37.7505ZM148.427 39.8654V37.2111C148.427 36.2115 147.781 35.539 146.74 35.5299C146.193 35.5209 145.627 35.689 145.232 36.2824C144.936 35.8134 144.469 35.5299 143.814 35.5299C143.357 35.5299 142.908 35.6626 142.558 36.1577V35.6363H141.625V39.8654H142.567V37.521C142.567 36.7867 142.98 36.3969 143.616 36.3969C144.236 36.3969 144.55 36.7948 144.55 37.5119V39.8654H145.492V37.5208C145.492 36.7865 145.924 36.3967 146.542 36.3967C147.18 36.3967 147.485 36.7946 147.485 37.5117V39.8654H148.427Z" fill="#110F0D"/>
<path d="M78.4244 39.9116V37.2568C78.4244 36.2389 77.7961 35.5754 76.719 35.5754C76.1806 35.5754 75.5972 35.7523 75.1933 36.3276C74.8793 35.8408 74.4306 35.5754 73.7575 35.5754C73.3086 35.5754 72.8601 35.708 72.5009 36.1948V35.6639H71.5586V39.9116H72.5009V37.5664C72.5009 36.8144 72.9049 36.4602 73.5332 36.4602C74.1612 36.4602 74.4756 36.8585 74.4756 37.5664V39.9116H75.4179V37.5664C75.4179 36.8144 75.8664 36.4602 76.4498 36.4602C77.0782 36.4602 77.3922 36.8585 77.3922 37.5664V39.9116H78.4244ZM92.38 35.6639H90.8544V34.3807H89.9121V35.6639H89.0595V36.5044H89.9119V38.4515C89.9119 39.425 90.3158 40.0001 91.3929 40.0001C91.7968 40.0001 92.2453 39.8674 92.5597 39.6905L92.2902 38.8939C92.021 39.0709 91.707 39.1152 91.4826 39.1152C91.0339 39.1152 90.8544 38.8497 90.8544 38.4071V36.5044H92.38V35.6639ZM100.368 35.5752C99.8292 35.5752 99.4703 35.8408 99.2458 36.1948V35.6639H98.3035V39.9116H99.2458V37.5223C99.2458 36.8144 99.5598 36.4161 100.143 36.4161C100.323 36.4161 100.547 36.4604 100.727 36.5046L100.996 35.6197C100.816 35.5754 100.547 35.5754 100.368 35.5754V35.5752ZM88.2966 36.0178C87.8477 35.708 87.2196 35.5754 86.5464 35.5754C85.4696 35.5754 84.7517 36.1063 84.7517 36.947C84.7517 37.6551 85.2901 38.0532 86.2324 38.186L86.6811 38.2303C87.1748 38.3186 87.444 38.4515 87.444 38.6728C87.444 38.9824 87.0851 39.2037 86.4567 39.2037C85.8285 39.2037 85.3349 38.9824 85.0207 38.7613L84.572 39.4691C85.0656 39.8231 85.7388 40.0001 86.4117 40.0001C87.6682 40.0001 88.3863 39.425 88.3863 38.6284C88.3863 37.8762 87.8029 37.4779 86.9054 37.3453L86.4567 37.3009C86.0528 37.2566 85.7388 37.1683 85.7388 36.9029C85.7388 36.5931 86.0528 36.4161 86.5464 36.4161C87.085 36.4161 87.6235 36.6372 87.8927 36.77L88.2966 36.0178ZM113.336 35.5754C112.798 35.5754 112.439 35.8408 112.214 36.1948V35.6639H111.272V39.9116H112.214V37.5223C112.214 36.8144 112.528 36.4161 113.112 36.4161C113.291 36.4161 113.516 36.4604 113.695 36.5046L113.964 35.6197C113.785 35.5754 113.516 35.5754 113.336 35.5754ZM101.31 37.7877C101.31 39.0709 102.207 40.0001 103.599 40.0001C104.227 40.0001 104.675 39.8674 105.124 39.5135L104.675 38.7613C104.317 39.0267 103.958 39.1593 103.554 39.1593C102.791 39.1593 102.252 38.6284 102.252 37.7877C102.252 36.9913 102.791 36.4602 103.554 36.4161C103.958 36.4161 104.317 36.5487 104.675 36.8144L105.124 36.0621C104.675 35.708 104.227 35.5754 103.599 35.5754C102.207 35.5754 101.31 36.5046 101.31 37.7877ZM110.016 37.7877V35.6639H109.073V36.1948C108.759 35.7967 108.31 35.5754 107.727 35.5754C106.515 35.5754 105.573 36.5046 105.573 37.7877C105.573 39.0709 106.515 40.0001 107.727 40.0001C108.355 40.0001 108.804 39.7789 109.073 39.3807V39.9116H110.016V37.7877ZM106.56 37.7877C106.56 37.0355 107.054 36.4161 107.861 36.4161C108.624 36.4161 109.163 36.9913 109.163 37.7877C109.163 38.5399 108.624 39.1593 107.861 39.1593C107.054 39.115 106.56 38.5399 106.56 37.7877ZM95.297 35.5754C94.0404 35.5754 93.1429 36.4602 93.1429 37.7877C93.1429 39.1152 94.0402 40.0001 95.3417 40.0001C95.9699 40.0001 96.5983 39.8231 97.0919 39.425L96.643 38.7613C96.2841 39.0267 95.8354 39.2037 95.3867 39.2037C94.8033 39.2037 94.2199 38.9382 94.0852 38.1858H97.2714V37.8321C97.3164 36.4602 96.5087 35.5754 95.297 35.5754ZM95.297 36.3717C95.8802 36.3717 96.2843 36.7259 96.3738 37.3896H94.1302C94.2199 36.8144 94.6238 36.3717 95.297 36.3717ZM118.676 37.7877V33.9824H117.734V36.1948C117.42 35.7967 116.971 35.5754 116.388 35.5754C115.176 35.5754 114.234 36.5046 114.234 37.7877C114.234 39.0709 115.176 40.0001 116.388 40.0001C117.016 40.0001 117.465 39.7789 117.734 39.3807V39.9116H118.676V37.7877ZM115.221 37.7877C115.221 37.0355 115.714 36.4161 116.522 36.4161C117.285 36.4161 117.824 36.9913 117.824 37.7877C117.824 38.5399 117.285 39.1593 116.522 39.1593C115.714 39.115 115.221 38.5399 115.221 37.7877ZM83.7194 37.7877V35.6639H82.777V36.1948C82.4628 35.7967 82.0142 35.5754 81.4308 35.5754C80.2192 35.5754 79.2769 36.5046 79.2769 37.7877C79.2769 39.0709 80.2192 40.0001 81.4308 40.0001C82.0591 40.0001 82.5078 39.7789 82.777 39.3807V39.9116H83.7194V37.7877ZM80.2192 37.7877C80.2192 37.0355 80.7129 36.4161 81.5205 36.4161C82.2834 36.4161 82.822 36.9913 82.822 37.7877C82.822 38.5399 82.2834 39.1593 81.5205 39.1593C80.7129 39.115 80.2192 38.5399 80.2192 37.7877Z" fill="black"/>
<path d="M87.9824 3.4071H102.118V28.4514H87.9824V3.4071Z" fill="#FF5F00"/>
<path d="M88.8791 15.9292C88.8791 10.8408 91.3023 6.32744 95.0267 3.407C92.2896 1.28314 88.8344 0 85.065 0C76.1348 0 68.9102 7.12381 68.9102 15.9292C68.9102 24.7345 76.1348 31.8585 85.0648 31.8585C88.8342 31.8585 92.2894 30.5753 95.0267 28.4513C91.3023 25.5752 88.8791 21.0177 88.8791 15.9292Z" fill="#EB001B"/>
<path d="M121.189 15.9292C121.189 24.7345 113.964 31.8585 105.034 31.8585C101.265 31.8585 97.8096 30.5753 95.0723 28.4513C98.8417 25.5311 101.22 21.0177 101.22 15.9292C101.22 10.8408 98.7967 6.32744 95.0723 3.407C97.8094 1.28314 101.265 0 105.034 0C113.964 0 121.189 7.16815 121.189 15.9292Z" fill="#F79E1B"/>
<path d="M29.4946 18.3709C29.4621 20.566 31.781 21.7909 33.5277 22.5192C35.3224 23.2664 35.9252 23.7456 35.9181 24.4139C35.9047 25.4365 34.4865 25.8879 33.1595 25.9054C30.8442 25.9361 29.498 25.3706 28.4278 24.9428L27.5937 28.2822C28.6675 28.7055 30.6557 29.0747 32.7175 29.0909C37.5573 29.0909 40.7236 27.0468 40.7407 23.8775C40.7596 19.8552 34.2384 19.6326 34.2829 17.8347C34.2983 17.2895 34.9063 16.7078 36.2384 16.5599C36.8979 16.4852 38.7181 16.428 40.7819 17.2411L41.5919 14.0102C40.4821 13.6645 39.0556 13.3334 37.2797 13.3334C32.7244 13.3334 29.5205 15.4053 29.4946 18.3709ZM49.3752 13.6117C48.4915 13.6117 47.7467 14.0527 47.4143 14.7296L40.501 28.8536H45.3372L46.2996 26.5779H52.2093L52.7676 28.8536H57.0302L53.3105 13.6117H49.3752ZM50.0518 17.7291L51.4475 23.4526H47.6251L50.0518 17.7291ZM23.631 13.6119L19.8189 28.8534H24.4274L28.2377 13.6115H23.631M16.8134 13.6115L12.0167 23.986L10.0763 15.165C9.84862 14.1803 8.9495 13.6117 7.95103 13.6117H0.109828L0 14.0543C1.60977 14.3532 3.43874 14.8352 4.54682 15.351C5.22494 15.6661 5.41831 15.9415 5.64109 16.6903L9.31619 28.8536H14.1863L21.6528 13.6117L16.8134 13.6115Z" fill="url(#paint0_linear_169_1120)"/>
<path d="M220.459 12.1212H235.435C237.955 12.1212 239.998 14.1643 239.998 16.6845C239.998 19.2047 237.955 21.2478 235.435 21.2478H220.459V12.1212Z" fill="black"/>
<path d="M220.459 21.8182H235.149C237.827 21.8182 239.998 23.989 239.998 26.6667C239.998 29.3445 237.827 31.5152 235.149 31.5152H220.459V21.8182Z" fill="black"/>
<rect x="197.23" y="12.1212" width="22.1792" height="19.3939" rx="9.69697" fill="black"/>
<rect x="208.32" y="20.6772" width="11.0896" height="1.14082" fill="#EDF2F7"/>
<defs>
<linearGradient id="paint0_linear_169_1120" x1="2621.9" y1="60.7006" x2="2660.94" y2="-1557.97" gradientUnits="userSpaceOnUse">
<stop stop-color="#222357"/>
<stop offset="1" stop-color="#254AA5"/>
</linearGradient>
</defs>
</svg>
