<svg width="35" height="35" viewBox="0 0 35 35" fill="none" xmlns="http://www.w3.org/2000/svg">
<path d="M32.0837 14.7292C32.2295 14 31.6462 13.125 30.917 13.125L22.6045 11.9583L18.8128 4.37501C18.667 4.08335 18.5212 3.93751 18.2295 3.79168C17.5003 3.35418 16.6253 3.64585 16.1878 4.37501L12.542 11.9583L4.22949 13.125C3.79199 13.125 3.50033 13.2708 3.35449 13.5625C2.77116 14.1458 2.77116 15.0208 3.35449 15.6042L9.33366 21.4375L7.87533 29.75C7.87533 30.0417 7.87533 30.3333 8.02116 30.625C8.45866 31.3542 9.33366 31.6458 10.0628 31.2083L17.5003 27.2708L24.9378 31.2083C25.0837 31.3542 25.3753 31.3542 25.667 31.3542C25.8128 31.3542 25.8128 31.3542 25.9587 31.3542C26.6878 31.2083 27.2712 30.4792 27.1253 29.6042L25.667 21.2917L31.6462 15.4583C31.9378 15.3125 32.0837 15.0208 32.0837 14.7292Z" fill="black"/>
</svg>
