<svg width="20" height="20" viewBox="0 0 20 20" fill="none" xmlns="http://www.w3.org/2000/svg">
<path d="M10.0004 8.30664C10.7609 8.30787 11.5046 8.08349 12.1376 7.66189C12.7705 7.24028 13.2641 6.64041 13.556 5.93816C13.8479 5.23592 13.9249 4.46287 13.7773 3.71685C13.6297 2.97082 13.2641 2.28535 12.7268 1.74716C12.1895 1.20898 11.5046 0.842277 10.7588 0.693457C10.013 0.544638 9.23985 0.620391 8.53714 0.911131C7.83442 1.20187 7.23374 1.69453 6.8111 2.32677C6.38847 2.959 6.16288 3.7024 6.16288 4.46289C6.16288 5.48123 6.56699 6.45796 7.28648 7.17862C8.00597 7.89928 8.98204 8.30498 10.0004 8.30664ZM10.0004 1.87539C10.5139 1.87415 11.0162 2.02538 11.4437 2.30991C11.8712 2.59444 12.2046 2.99946 12.4017 3.47366C12.5988 3.94786 12.6507 4.46989 12.5508 4.97361C12.451 5.47733 12.2038 5.94007 11.8407 6.30319C11.4776 6.66631 11.0148 6.91346 10.5111 7.01335C10.0074 7.11323 9.48535 7.06133 9.01115 6.86425C8.53695 6.66716 8.13193 6.33374 7.8474 5.90624C7.56287 5.47875 7.41164 4.97641 7.41288 4.46289C7.41453 3.77715 7.68767 3.11996 8.17256 2.63507C8.65746 2.15018 9.31464 1.87704 10.0004 1.87539ZM17.1129 16.7566C16.3629 18.6879 12.9504 19.3754 10.0004 19.3754C7.05038 19.3754 3.63788 18.6879 2.88788 16.7566C2.48788 15.7254 2.84413 14.1941 3.81913 12.7629C4.49734 11.7392 5.41446 10.8958 6.49135 10.3057C7.56824 9.7155 8.77256 9.39623 10.0004 9.37539C11.4495 9.40712 12.8597 9.84987 14.0669 10.6521C15.2741 11.4543 16.2286 12.583 16.8191 13.9066C16.8613 13.9824 16.8872 14.0662 16.8952 14.1526C16.9033 14.239 16.8932 14.3261 16.8658 14.4084C16.8383 14.4906 16.794 14.5663 16.7357 14.6305C16.6774 14.6948 16.6063 14.7462 16.5271 14.7814C16.4478 14.8167 16.3621 14.8351 16.2753 14.8354C16.1886 14.8358 16.1027 14.818 16.0232 14.7834C15.9436 14.7487 15.8722 14.6979 15.8134 14.6341C15.7546 14.5703 15.7097 14.495 15.6816 14.4129C15.1809 13.3154 14.3839 12.3795 13.3802 11.7103C12.3765 11.0412 11.206 10.6655 10.0004 10.6254C8.97654 10.6461 7.97316 10.9159 7.07695 11.4114C6.18075 11.9068 5.41868 12.6131 4.85663 13.4691C4.01913 14.6879 3.85038 15.7941 4.05038 16.3066C4.46288 17.3629 6.96288 18.1254 10.0004 18.1254C13.0379 18.1254 15.5379 17.3629 15.9504 16.3066C16.0181 16.1642 16.1371 16.0526 16.2837 15.9942C16.4302 15.9358 16.5934 15.9351 16.7405 15.992C16.8876 16.0489 17.0077 16.1594 17.0768 16.3012C17.1459 16.443 17.1588 16.6057 17.1129 16.7566Z" fill="#0A3782"/>
</svg>
