<svg width="35" height="35" viewBox="0 0 35 35" fill="none" xmlns="http://www.w3.org/2000/svg">
<path d="M17.5 2.37842C15.3805 2.37846 13.343 3.19769 11.8135 4.66489C10.2839 6.13208 9.38055 8.13368 9.29229 10.2513C9.20403 12.369 9.93766 14.4388 11.3398 16.0282C12.742 17.6176 14.7043 18.6035 16.8164 18.78V31.938C16.8164 32.1193 16.8884 32.2932 17.0166 32.4214C17.1448 32.5496 17.3187 32.6216 17.5 32.6216C17.6813 32.6216 17.8552 32.5496 17.9834 32.4214C18.1116 32.2932 18.1836 32.1193 18.1836 31.938V18.7847C20.112 18.6423 21.9253 17.813 23.2941 16.4473C24.4472 15.2976 25.2336 13.832 25.554 12.2357C25.8744 10.6393 25.7145 8.98378 25.0945 7.47825C24.4744 5.97272 23.4221 4.68474 22.0704 3.77703C20.7186 2.86933 19.1282 2.38263 17.5 2.37842ZM15.0821 7.87998C14.1195 9.13137 13.8584 10.858 14.4005 12.3862C14.4305 12.4708 14.4436 12.5605 14.439 12.6502C14.4343 12.7398 14.4121 12.8277 14.3735 12.9088C14.3349 12.9898 14.2807 13.0625 14.214 13.1226C14.1473 13.1827 14.0694 13.2291 13.9848 13.2591C13.9002 13.2891 13.8105 13.3022 13.7209 13.2975C13.6312 13.2929 13.5434 13.2706 13.4623 13.232C13.3812 13.1934 13.3086 13.1393 13.2485 13.0726C13.1884 13.0059 13.142 12.928 13.112 12.8434C12.4163 10.8827 12.756 8.66147 13.9984 7.04654C14.109 6.90284 14.2721 6.80895 14.4519 6.78551C14.6316 6.76206 14.8134 6.811 14.9571 6.92155C15.1008 7.0321 15.1947 7.1952 15.2181 7.37498C15.2416 7.55476 15.1926 7.73649 15.0821 7.88019V7.87998Z" fill="black"/>
</svg>
