<svg width="38" height="38" viewBox="0 0 38 38" fill="none" xmlns="http://www.w3.org/2000/svg">
<g clip-path="url(#clip0_329_2767)">
<path d="M30.5115 7.41C30.1501 7.14956 29.7323 6.97799 29.2922 6.90922C28.852 6.84044 28.4018 6.8764 27.9782 7.01417C26.8606 7.32843 25.7031 7.47779 24.5423 7.4575C22.8269 7.36439 21.145 6.94525 19.5865 6.2225C17.6612 5.33208 15.5787 4.83163 13.459 4.75C8.88318 4.75 7.12568 6.33333 6.80901 6.555C6.6575 6.7035 6.53738 6.88094 6.45578 7.07678C6.37418 7.27261 6.33277 7.48285 6.33401 7.695V31.6667C6.33401 32.0866 6.50083 32.4893 6.79776 32.7863C7.09469 33.0832 7.49742 33.25 7.91734 33.25C8.33727 33.25 8.74 33.0832 9.03693 32.7863C9.33386 32.4893 9.50068 32.0866 9.50068 31.6667V24.8583C10.7623 24.3753 12.1092 24.1544 13.459 24.2092C15.1744 24.3023 16.8564 24.7214 18.4148 25.4442C20.3402 26.3346 22.4227 26.835 24.5423 26.9167C26.4511 26.9888 28.3498 26.609 30.084 25.8083C30.5514 25.5888 30.9477 25.2423 31.2276 24.8083C31.5076 24.3744 31.66 23.8705 31.6673 23.3542V9.67417C31.6668 9.23238 31.5618 8.79698 31.3609 8.40349C31.16 8.01 30.869 7.66958 30.5115 7.41Z" fill="#0A3782"/>
</g>
<defs>
<clipPath id="clip0_329_2767">
<rect width="38" height="38" fill="white"/>
</clipPath>
</defs>
</svg>
