<svg width="20" height="20" viewBox="0 0 20 20" fill="none" xmlns="http://www.w3.org/2000/svg">
<path d="M4.99837 0.835938H12.4984C13.4175 0.835938 14.165 1.58344 14.165 2.5026V4.16927H12.4984V2.5026H4.99837C4.5392 2.5026 4.16504 2.87677 4.16504 3.33594V15.0026H4.99837V14.1693H6.66504V17.5026H4.99837V16.6693H4.16504V19.1693H2.49837V3.33594C2.49837 1.9576 3.6192 0.835938 4.99837 0.835938Z" fill="#0A3782"/>
<path d="M13.3317 7.5026C12.8715 7.5026 12.4984 7.12951 12.4984 6.66927C12.4984 6.20903 12.8715 5.83594 13.3317 5.83594C13.7919 5.83594 14.165 6.20903 14.165 6.66927C14.165 7.12951 13.7919 7.5026 13.3317 7.5026Z" fill="#0A3782"/>
<path d="M14.9977 9.58561C14.5375 9.58561 14.1644 9.21252 14.1644 8.75228C14.1644 8.29204 14.5375 7.91895 14.9977 7.91895C15.458 7.91895 15.8311 8.29204 15.8311 8.75228C15.8311 9.21252 15.458 9.58561 14.9977 9.58561Z" fill="#0A3782"/>
<path d="M11.6647 9.58561C11.2045 9.58561 10.8314 9.21252 10.8314 8.75228C10.8314 8.29204 11.2045 7.91895 11.6647 7.91895C12.125 7.91895 12.498 8.29204 12.498 8.75228C12.498 9.21252 12.125 9.58561 11.6647 9.58561Z" fill="#0A3782"/>
<path d="M13.3317 11.6696C12.8715 11.6696 12.4984 11.2965 12.4984 10.8363C12.4984 10.376 12.8715 10.0029 13.3317 10.0029C13.7919 10.0029 14.165 10.376 14.165 10.8363C14.165 11.2965 13.7919 11.6696 13.3317 11.6696Z" fill="#0A3782"/>
<path d="M16.6647 11.6696C16.2045 11.6696 15.8314 11.2965 15.8314 10.8363C15.8314 10.376 16.2045 10.0029 16.6647 10.0029C17.125 10.0029 17.498 10.376 17.498 10.8363C17.498 11.2965 17.125 11.6696 16.6647 11.6696Z" fill="#0A3782"/>
<path d="M9.99772 11.6696C9.53748 11.6696 9.16439 11.2965 9.16439 10.8363C9.16439 10.376 9.53748 10.0029 9.99772 10.0029C10.458 10.0029 10.8311 10.376 10.8311 10.8363C10.8311 11.2965 10.458 11.6696 9.99772 11.6696Z" fill="#0A3782"/>
</svg>
