<svg width="20" height="20" viewBox="0 0 20 20" fill="none" xmlns="http://www.w3.org/2000/svg">
<path d="M18.5934 12.9408C18.7917 12.9408 18.9525 12.78 18.9525 12.5817C18.9525 12.3834 18.7917 12.2227 18.5934 12.2227C18.3951 12.2227 18.2344 12.3834 18.2344 12.5817C18.2344 12.78 18.3951 12.9408 18.5934 12.9408Z" fill="#0A3782"/>
<path d="M1.42547 12.9408C1.62377 12.9408 1.78453 12.78 1.78453 12.5817C1.78453 12.3834 1.62377 12.2227 1.42547 12.2227C1.22716 12.2227 1.06641 12.3834 1.06641 12.5817C1.06641 12.78 1.22716 12.9408 1.42547 12.9408Z" fill="#0A3782"/>
<path d="M19.556 7.90625H17.6307C17.5478 7.90625 17.4683 7.93917 17.4097 7.99778C17.3511 8.05638 17.3182 8.13587 17.3182 8.21875V9.1875C17.0898 8.93172 16.8098 8.72712 16.4968 8.5871C16.1837 8.44707 15.8446 8.3748 15.5016 8.375H5.55508C5.47987 7.84165 5.21481 7.35333 4.80856 6.99967C4.40231 6.646 3.88214 6.45073 3.34352 6.44969H2.7007V4.0625C2.7007 3.97962 2.66778 3.90013 2.60918 3.84153C2.55057 3.78292 2.47108 3.75 2.3882 3.75H0.462891C0.380011 3.75 0.300525 3.78292 0.24192 3.84153C0.183315 3.90013 0.150391 3.97962 0.150391 4.0625V16.1322C0.150391 16.2151 0.183315 16.2945 0.24192 16.3532C0.300525 16.4118 0.380011 16.4447 0.462891 16.4447H2.3882C2.42924 16.4447 2.46988 16.4366 2.50779 16.4209C2.54571 16.4052 2.58016 16.3822 2.60918 16.3532C2.63819 16.3241 2.66121 16.2897 2.67692 16.2518C2.69262 16.2139 2.7007 16.1732 2.7007 16.1322V13.9637H17.3182V16.1322C17.3182 16.2151 17.3511 16.2945 17.4097 16.3532C17.4683 16.4118 17.5478 16.4447 17.6307 16.4447H19.556C19.6389 16.4447 19.7184 16.4118 19.777 16.3532C19.8356 16.2945 19.8685 16.2151 19.8685 16.1322V8.21875C19.8685 8.13587 19.8356 8.05638 19.777 7.99778C19.7184 7.93917 19.6389 7.90625 19.556 7.90625ZM17.3182 10.8141V11.3225H2.7007V9H15.5016C15.983 9.00041 16.4445 9.19167 16.785 9.53185C17.1256 9.87203 17.3173 10.3334 17.3182 10.8147V10.8141ZM3.34352 7.07469C3.71653 7.07535 4.07778 7.20529 4.36576 7.44238C4.65373 7.67947 4.85062 8.00905 4.92289 8.375H2.7007V7.07469H3.34352ZM2.0757 15.8197H0.775391V4.375H2.0757V15.8197ZM2.7007 13.3387V11.9481H17.3182V13.3387H2.7007ZM19.2435 15.8197H17.9432V8.53125H19.2435V15.8197Z" fill="#0A3782"/>
</svg>
